<svg width="204" height="177" viewBox="0 0 204 177" fill="none" xmlns="http://www.w3.org/2000/svg">
<rect width="204" height="177" fill="#1E1E1E"/>
<g id="kanban-board-icon">
<rect width="204" height="177" fill="#242633"/>
<g id="TO DO" filter="url(#filter0_d_0_1)">
<path d="M23.5682 27.392V25.3636H33.125V27.392H29.5625V37H27.1307V27.392H23.5682ZM44.8608 31.1818C44.8608 32.4508 44.6203 33.5303 44.1392 34.4205C43.6619 35.3106 43.0104 35.9905 42.1847 36.4602C41.3627 36.9261 40.4384 37.1591 39.4119 37.1591C38.3778 37.1591 37.4498 36.9242 36.6278 36.4545C35.8059 35.9848 35.1563 35.3049 34.679 34.4148C34.2017 33.5246 33.9631 32.447 33.9631 31.1818C33.9631 29.9129 34.2017 28.8333 34.679 27.9432C35.1563 27.053 35.8059 26.375 36.6278 25.9091C37.4498 25.4394 38.3778 25.2045 39.4119 25.2045C40.4384 25.2045 41.3627 25.4394 42.1847 25.9091C43.0104 26.375 43.6619 27.053 44.1392 27.9432C44.6203 28.8333 44.8608 29.9129 44.8608 31.1818ZM42.3665 31.1818C42.3665 30.3598 42.2434 29.6667 41.9972 29.1023C41.7547 28.5379 41.4119 28.1098 40.9688 27.8182C40.5256 27.5265 40.0066 27.3807 39.4119 27.3807C38.8172 27.3807 38.2983 27.5265 37.8551 27.8182C37.4119 28.1098 37.0672 28.5379 36.821 29.1023C36.5786 29.6667 36.4574 30.3598 36.4574 31.1818C36.4574 32.0038 36.5786 32.697 36.821 33.2614C37.0672 33.8258 37.4119 34.2538 37.8551 34.5455C38.2983 34.8371 38.8172 34.983 39.4119 34.983C40.0066 34.983 40.5256 34.8371 40.9688 34.5455C41.4119 34.2538 41.7547 33.8258 41.9972 33.2614C42.2434 32.697 42.3665 32.0038 42.3665 31.1818ZM54.5114 37H50.3864V25.3636H54.5455C55.7159 25.3636 56.7235 25.5966 57.5682 26.0625C58.4129 26.5246 59.0625 27.1894 59.517 28.0568C59.9754 28.9242 60.2045 29.9621 60.2045 31.1705C60.2045 32.3826 59.9754 33.4242 59.517 34.2955C59.0625 35.1667 58.4091 35.8352 57.5568 36.3011C56.7083 36.767 55.6932 37 54.5114 37ZM52.8466 34.892H54.4091C55.1364 34.892 55.7481 34.7633 56.2443 34.5057C56.7443 34.2443 57.1193 33.8409 57.3693 33.2955C57.6231 32.7462 57.75 32.0379 57.75 31.1705C57.75 30.3106 57.6231 29.608 57.3693 29.0625C57.1193 28.517 56.7462 28.1155 56.25 27.858C55.7538 27.6004 55.142 27.4716 54.4148 27.4716H52.8466V34.892ZM72.7202 31.1818C72.7202 32.4508 72.4796 33.5303 71.9986 34.4205C71.5213 35.3106 70.8698 35.9905 70.044 36.4602C69.2221 36.9261 68.2978 37.1591 67.2713 37.1591C66.2372 37.1591 65.3092 36.9242 64.4872 36.4545C63.6652 35.9848 63.0156 35.3049 62.5384 34.4148C62.0611 33.5246 61.8224 32.447 61.8224 31.1818C61.8224 29.9129 62.0611 28.8333 62.5384 27.9432C63.0156 27.053 63.6652 26.375 64.4872 25.9091C65.3092 25.4394 66.2372 25.2045 67.2713 25.2045C68.2978 25.2045 69.2221 25.4394 70.044 25.9091C70.8698 26.375 71.5213 27.053 71.9986 27.9432C72.4796 28.8333 72.7202 29.9129 72.7202 31.1818ZM70.2259 31.1818C70.2259 30.3598 70.1027 29.6667 69.8565 29.1023C69.6141 28.5379 69.2713 28.1098 68.8281 27.8182C68.3849 27.5265 67.866 27.3807 67.2713 27.3807C66.6766 27.3807 66.1577 27.5265 65.7145 27.8182C65.2713 28.1098 64.9266 28.5379 64.6804 29.1023C64.438 29.6667 64.3168 30.3598 64.3168 31.1818C64.3168 32.0038 64.438 32.697 64.6804 33.2614C64.9266 33.8258 65.2713 34.2538 65.7145 34.5455C66.1577 34.8371 66.6766 34.983 67.2713 34.983C67.866 34.983 68.3849 34.8371 68.8281 34.5455C69.2713 34.2538 69.6141 33.8258 69.8565 33.2614C70.1027 32.697 70.2259 32.0038 70.2259 31.1818Z" fill="#A4A4A4"/>
</g>
<g id="DONE" filter="url(#filter1_d_0_1)">
<path d="M137.136 38H133.011V26.3636H137.17C138.341 26.3636 139.348 26.5966 140.193 27.0625C141.038 27.5246 141.688 28.1894 142.142 29.0568C142.6 29.9242 142.83 30.9621 142.83 32.1705C142.83 33.3826 142.6 34.4242 142.142 35.2955C141.688 36.1667 141.034 36.8352 140.182 37.3011C139.333 37.767 138.318 38 137.136 38ZM135.472 35.892H137.034C137.761 35.892 138.373 35.7633 138.869 35.5057C139.369 35.2443 139.744 34.8409 139.994 34.2955C140.248 33.7462 140.375 33.0379 140.375 32.1705C140.375 31.3106 140.248 30.608 139.994 30.0625C139.744 29.517 139.371 29.1155 138.875 28.858C138.379 28.6004 137.767 28.4716 137.04 28.4716H135.472V35.892ZM155.345 32.1818C155.345 33.4508 155.105 34.5303 154.624 35.4205C154.146 36.3106 153.495 36.9905 152.669 37.4602C151.847 37.9261 150.923 38.1591 149.896 38.1591C148.862 38.1591 147.934 37.9242 147.112 37.4545C146.29 36.9848 145.641 36.3049 145.163 35.4148C144.686 34.5246 144.447 33.447 144.447 32.1818C144.447 30.9129 144.686 29.8333 145.163 28.9432C145.641 28.053 146.29 27.375 147.112 26.9091C147.934 26.4394 148.862 26.2045 149.896 26.2045C150.923 26.2045 151.847 26.4394 152.669 26.9091C153.495 27.375 154.146 28.053 154.624 28.9432C155.105 29.8333 155.345 30.9129 155.345 32.1818ZM152.851 32.1818C152.851 31.3598 152.728 30.6667 152.482 30.1023C152.239 29.5379 151.896 29.1098 151.453 28.8182C151.01 28.5265 150.491 28.3807 149.896 28.3807C149.302 28.3807 148.783 28.5265 148.339 28.8182C147.896 29.1098 147.552 29.5379 147.305 30.1023C147.063 30.6667 146.942 31.3598 146.942 32.1818C146.942 33.0038 147.063 33.697 147.305 34.2614C147.552 34.8258 147.896 35.2538 148.339 35.5455C148.783 35.8371 149.302 35.983 149.896 35.983C150.491 35.983 151.01 35.8371 151.453 35.5455C151.896 35.2538 152.239 34.8258 152.482 34.2614C152.728 33.697 152.851 33.0038 152.851 32.1818ZM166.901 26.3636V38H164.776L159.713 30.6761H159.628V38H157.168V26.3636H159.327L164.349 33.6818H164.452V26.3636H166.901ZM168.933 38V26.3636H176.774V28.392H171.393V31.1648H176.371V33.1932H171.393V35.9716H176.797V38H168.933Z" fill="#A4A4A4"/>
</g>
<line id="Line 1" x1="7.79694" y1="61.0069" x2="190.804" y2="48.591" stroke="#A4A4A4" stroke-width="6"/>
<line id="Line 2" x1="93.999" y1="15.9226" x2="97.999" y2="170.923" stroke="#A4A4A4" stroke-width="6"/>
<g id="red-task" filter="url(#filter2_d_0_1)">
<rect id="Rectangle 1" x="20" y="77" width="65" height="40" fill="#E01818"/>
<line id="Line 3" x1="26.9008" y1="84.6307" x2="71.0815" y2="84.3693" stroke="#242633" stroke-width="3"/>
<line id="Line 4" x1="31" y1="98.5" x2="61" y2="98.5" stroke="#242633" stroke-width="3"/>
</g>
<g id="green task" filter="url(#filter3_d_0_1)">
<rect id="Rectangle 2" x="119" y="64" width="65" height="40" fill="#15DE29"/>
<line id="Line 5" x1="127" y1="70.5" x2="173" y2="70.5" stroke="#242633" stroke-width="3"/>
<line id="Line 6" x1="129.987" y1="81.3217" x2="163.046" y2="81.6785" stroke="#242633" stroke-width="3"/>
<line id="Line 7" x1="130" y1="92.5" x2="173" y2="92.5" stroke="#242633" stroke-width="3"/>
</g>
</g>
<defs>
<filter id="filter0_d_0_1" x="19.5682" y="25.2045" width="57.152" height="19.9545" filterUnits="userSpaceOnUse" color-interpolation-filters="sRGB">
<feFlood flood-opacity="0" result="BackgroundImageFix"/>
<feColorMatrix in="SourceAlpha" type="matrix" values="0 0 0 0 0 0 0 0 0 0 0 0 0 0 0 0 0 0 127 0" result="hardAlpha"/>
<feOffset dy="4"/>
<feGaussianBlur stdDeviation="2"/>
<feComposite in2="hardAlpha" operator="out"/>
<feColorMatrix type="matrix" values="0 0 0 0 0 0 0 0 0 0 0 0 0 0 0 0 0 0 0.25 0"/>
<feBlend mode="normal" in2="BackgroundImageFix" result="effect1_dropShadow_0_1"/>
<feBlend mode="normal" in="SourceGraphic" in2="effect1_dropShadow_0_1" result="shape"/>
</filter>
<filter id="filter1_d_0_1" x="129.011" y="26.2045" width="51.7855" height="19.9545" filterUnits="userSpaceOnUse" color-interpolation-filters="sRGB">
<feFlood flood-opacity="0" result="BackgroundImageFix"/>
<feColorMatrix in="SourceAlpha" type="matrix" values="0 0 0 0 0 0 0 0 0 0 0 0 0 0 0 0 0 0 127 0" result="hardAlpha"/>
<feOffset dy="4"/>
<feGaussianBlur stdDeviation="2"/>
<feComposite in2="hardAlpha" operator="out"/>
<feColorMatrix type="matrix" values="0 0 0 0 0 0 0 0 0 0 0 0 0 0 0 0 0 0 0.25 0"/>
<feBlend mode="normal" in2="BackgroundImageFix" result="effect1_dropShadow_0_1"/>
<feBlend mode="normal" in="SourceGraphic" in2="effect1_dropShadow_0_1" result="shape"/>
</filter>
<filter id="filter2_d_0_1" x="16" y="77" width="73" height="48" filterUnits="userSpaceOnUse" color-interpolation-filters="sRGB">
<feFlood flood-opacity="0" result="BackgroundImageFix"/>
<feColorMatrix in="SourceAlpha" type="matrix" values="0 0 0 0 0 0 0 0 0 0 0 0 0 0 0 0 0 0 127 0" result="hardAlpha"/>
<feOffset dy="4"/>
<feGaussianBlur stdDeviation="2"/>
<feComposite in2="hardAlpha" operator="out"/>
<feColorMatrix type="matrix" values="0 0 0 0 0 0 0 0 0 0 0 0 0 0 0 0 0 0 0.25 0"/>
<feBlend mode="normal" in2="BackgroundImageFix" result="effect1_dropShadow_0_1"/>
<feBlend mode="normal" in="SourceGraphic" in2="effect1_dropShadow_0_1" result="shape"/>
</filter>
<filter id="filter3_d_0_1" x="115" y="64" width="73" height="48" filterUnits="userSpaceOnUse" color-interpolation-filters="sRGB">
<feFlood flood-opacity="0" result="BackgroundImageFix"/>
<feColorMatrix in="SourceAlpha" type="matrix" values="0 0 0 0 0 0 0 0 0 0 0 0 0 0 0 0 0 0 127 0" result="hardAlpha"/>
<feOffset dy="4"/>
<feGaussianBlur stdDeviation="2"/>
<feComposite in2="hardAlpha" operator="out"/>
<feColorMatrix type="matrix" values="0 0 0 0 0 0 0 0 0 0 0 0 0 0 0 0 0 0 0.25 0"/>
<feBlend mode="normal" in2="BackgroundImageFix" result="effect1_dropShadow_0_1"/>
<feBlend mode="normal" in="SourceGraphic" in2="effect1_dropShadow_0_1" result="shape"/>
</filter>
</defs>
</svg>
